<?xml version="1.0" encoding="utf-8"?>
<!-- Generator: Adobe Illustrator 21.1.0, SVG Export Plug-In . SVG Version: 6.00 Build 0)  -->
<svg version="1.1" id="Слой_1" xmlns="http://www.w3.org/2000/svg" xmlns:xlink="http://www.w3.org/1999/xlink" x="0px" y="0px"
	 viewBox="0 0 270.5 31.3" style="enable-background:new 0 0 270.5 31.3;" xml:space="preserve">
<style type="text/css">
	.st0{fill:#1D1B1B;}
</style>
<g>
	<rect x="197.8" y="15.8" class="st0" width="72.7" height="2"/>
	<rect y="15.8" class="st0" width="72.7" height="2"/>
	<g>
		<path class="st0" d="M123.7,0.3c0,0.1-0.1,0.2-0.2,0.3c-0.4,0.8-0.9,1.4-1.5,1.9c-0.5,0.4-1,0.6-1.6,0.7c-0.3,0-0.5,0.1-0.8,0.1
			c0,0-0.1,0-0.1,0.1c0,0,0,0.1,0,0.1c0.2,0,0.3,0.2,0.4,0.3c0.2,0.1,0.4,0.3,0.6,0.4c0.2,0.1,0.3,0.3,0.5,0.2
			c0.5-0.3,1-0.6,1.4-0.9c0.4-0.3,0.7-0.5,1-0.9c0.2-0.2,0.4-0.4,0.5-0.7c0.1-0.2,0.2-0.4,0.4-0.6c0.2-0.3,0.2-0.9-0.1-1.1
			C124-0.1,123.8,0,123.7,0.3z"/>
		<path class="st0" d="M115,4.4c-0.3,0.1-0.6,0.2-0.9,0.3c-0.6,0.2-1.1,0.4-1.6,0.6c-0.6,0.3-1.3,0.6-1.9,0.9
			c-0.5,0.2-1,0.5-1.4,0.7c-0.6,0.4-1.2,0.7-1.8,1.1c-0.1,0.1-0.1,0.2-0.3,0.2c-0.1,0-0.1,0.1-0.1,0.1c0,0-0.1,0.1-0.1,0.1
			c-0.5,0.2-0.8,0.6-1.2,0.9c-0.8,0.6-1.6,1.2-2.4,1.8c-0.1,0-0.2,0-0.2,0.1c-0.6,0.4-1.2,0.8-1.7,1.2c-0.8,0.6-1.7,1.2-2.6,1.7
			c-0.8,0.6-1.7,1.1-2.5,1.6c-0.2,0-0.2,0.1-0.3,0.2l0,0l0,0c0,0.1-0.1,0.1-0.2,0.1c-0.1,0-0.2,0.1-0.3,0.2c0,0,0,0-0.1,0
			c-0.1,0-0.2,0-0.2,0.1c-0.1,0.1-0.3,0.2-0.4,0.3c-0.7,0.5-1.5,0.9-2.2,1.4c-0.3,0.2-0.5,0.4-0.8,0.5c-0.1-0.1-0.1,0.1-0.2,0.1
			c-0.2,0.2-0.4,0.3-0.6,0.4c-0.5,0.3-1,0.6-1.5,0.9c-0.4,0.2-0.7,0.5-0.6,1c0,0.6,0.2,1.2,0.4,1.7c0,0.2,0.1,0.3,0.2,0.4
			c0,0,0.1,0,0.1,0c0.3,0.6,0.8,1,1.4,1.3c0.1,0.1,0.2,0.1,0.3,0.1c0.1,0,0.2,0,0.3,0c0.3-0.1,0.5-0.3,0.8-0.5
			c0.6-0.4,1.2-0.8,1.8-1.2c0.1,0,0.2,0,0.2-0.1c0.5-0.3,0.9-0.5,1.4-0.8c0.5-0.4,1.1-0.7,1.7-1.1c0.1,0,0.2,0,0.2-0.1
			c0,0,0,0,0.1,0c0.2-0.1,0.4-0.1,0.5-0.3c0,0,0.1,0,0.1,0c0.6-0.4,1.3-0.8,2-1.3c0.5-0.3,1-0.6,1.5-0.9c0.6-0.4,1.2-0.8,1.8-1.2
			c0.7-0.5,1.5-0.9,2.2-1.4c0.5-0.3,0.8-0.8,0.9-1.5c0-0.3,0-0.6,0-0.9c-0.1-0.6,0.1-1.1,0.2-1.7c0.1,0,0.1-0.1,0.1-0.2
			c0.1-0.4,0.4-0.6,0.7-0.9c0.2-0.1,0.4-0.3,0.5-0.4c0.6-0.4,1.2-0.6,1.9-1c0.5-0.2,1-0.5,1.5-0.7c0.5-0.2,1-0.5,1.5-0.7
			c0.4-0.2,0.7-0.3,1.1-0.5c0.4-0.2,0.9-0.3,1.3-0.5c0.2-0.1,0.5-0.2,0.7-0.3c0.1,0,0.3-0.1,0-0.2c-0.2-0.1-0.4-0.3-0.6-0.4
			c-0.2-0.2-0.4-0.3-0.4-0.6c0-0.2,0-0.3,0-0.5C115.1,4.4,115.1,4.3,115,4.4z"/>
		<path class="st0" d="M116.9,2.6c-0.4,0.2-0.8,0.4-1.2,0.5c-0.3,0.1-0.4,0.3-0.4,0.6c0,0.1,0.1,0.1,0,0.2c-0.1,0.3,0,0.6,0,0.9
			c0,0.1,0,0.2,0.1,0.3c0.2,0.3,0.5,0.4,0.7,0.6c0.2,0.2,0.5,0.3,0.7,0.5c0.3,0.3,0.7,0.5,1,0.8c0.2,0.2,0.4,0.3,0.6,0.5
			c0.4,0.3,0.8,0.6,1.2,0.9c0.4,0.3,0.8,0.6,1.2,1c0.4,0.3,0.8,0.6,1.2,1c0.3,0.3,0.7,0.6,1,0.9c0.3,0.2,0.5,0.5,0.8,0.7
			c0.3,0.2,0.5,0.4,0.8,0.7c0.5,0.4,0.9,0.9,1.4,1.3c0.3,0.3,0.7,0.7,1,1c0.4,0.4,0.8,0.8,1.2,1.2c0.5,0.5,1,0.9,1.5,1.4
			c0.4,0.4,0.8,0.9,1.2,1.3c0.3,0.3,0.5,0.6,0.9,0.9c0.2,0.2,0.4,0.5,0.7,0.7c0.2,0.2,0.4,0.4,0.6,0.6c0.4,0.5,0.9,1,1.4,1.5
			c0.2,0.2,0.5,0.5,0.7,0.7c0.5,0.6,0.9,1.1,1.4,1.6c0.1,0.2,0.3,0.3,0.4,0.5c0.2,0.3,0.5,0.5,0.7,0.8c0.1,0.2,0.3,0.3,0.4,0.5
			c0.2,0.2,0.3,0.5,0.6,0.7c0.2,0.3,0.4,0.5,0.6,0.7c0.1,0.1,0.1,0.3,0.3,0.3c0,0,0,0,0,0.1c0,0.1,0.1,0.2,0.2,0.2
			c0.1,0,0.1,0.1,0.1,0.2c0.2,0.2,0.4,0.5,0.6,0.7c0.2,0.3,0.5,0.6,0.7,1c0.3,0.4,0.8,0.4,1.3,0.4c0.5,0.1,1,0.1,1.5,0.2
			c0.1,0,0.2,0,0.3,0c0.2,0,0.3-0.1,0.4-0.2c0.2-0.3,0.3-0.7,0.4-1c0.1-0.1,0.1-0.1,0.1-0.2c0.1-0.2,0.1-0.5,0.2-0.7
			c0.1-0.1,0.1-0.1,0.1-0.2c0.1-0.3,0.2-0.5,0-0.8c-0.4-0.6-0.8-1.2-1.2-1.7c-0.4-0.6-0.8-1.1-1.2-1.7c-0.6-0.8-1.2-1.6-1.9-2.3
			c-0.5-0.6-1-1.2-1.5-1.8c-0.4-0.4-0.7-0.8-1.1-1.2c-0.5-0.6-1.1-1.2-1.7-1.8c-0.4-0.4-0.8-0.8-1.2-1.2c-0.4-0.4-0.7-0.7-1.1-1.1
			c-0.4-0.4-0.9-0.8-1.3-1.3c-0.7-0.7-1.4-1.3-2.1-1.9c-0.4-0.4-0.9-0.7-1.3-1.1c-0.1-0.1-0.2-0.2-0.3-0.3l0,0v0l0,0
			c0,0-0.1,0-0.1-0.1c0-0.1-0.1-0.1-0.2-0.1c0,0,0,0,0,0c-0.1-0.1-0.2-0.2-0.3-0.2c-0.1,0-0.2-0.1-0.2-0.2c-0.1-0.1-0.2-0.2-0.3-0.2
			c-0.1,0-0.1-0.1-0.2-0.2c0-0.1-0.1-0.1-0.2-0.2l0,0l0,0c-0.1,0-0.2-0.1-0.2-0.1c-0.5-0.4-1-0.8-1.6-1.2c-0.3-0.3-0.7-0.5-1-0.8
			c-0.3-0.2-0.5-0.4-0.8-0.5c-0.2-0.2-0.5-0.3-0.7-0.5c-0.3-0.2-0.6-0.4-0.9-0.6c-0.3-0.2-0.5-0.4-0.8-0.5c-0.4-0.3-0.9-0.6-1.3-0.9
			c-0.3-0.2-0.6-0.4-0.9-0.6c-0.3-0.2-0.7-0.4-1-0.6c-0.2-0.2-0.5-0.3-0.7-0.4C117.6,2.5,117.3,2.4,116.9,2.6z M144,29.9
			c-0.1,0.4-0.5,0.6-0.8,0.5c-0.4-0.1-0.6-0.5-0.5-0.8c0.1-0.4,0.5-0.6,0.8-0.5S144.1,29.5,144,29.9z M118.2,4.9
			c-0.1,0.4-0.5,0.6-0.8,0.5c-0.4-0.1-0.6-0.5-0.5-0.8c0.1-0.4,0.5-0.6,0.8-0.5C118,4.1,118.3,4.5,118.2,4.9z"/>
		<path class="st0" d="M123.7,0.3c0,0.1-0.1,0.2-0.2,0.3c-0.4,0.8-0.9,1.4-1.5,1.9c-0.5,0.4-1,0.6-1.6,0.7c-0.3,0-0.5,0.1-0.8,0.1
			c0,0-0.1,0-0.1,0.1c0,0,0,0.1,0,0.1c0.2,0,0.3,0.2,0.4,0.3c0.2,0.1,0.4,0.3,0.6,0.4c0.2,0.1,0.3,0.3,0.5,0.2
			c0.5-0.3,1-0.6,1.4-0.9c0.4-0.3,0.7-0.5,1-0.9c0.2-0.2,0.4-0.4,0.5-0.7c0.1-0.2,0.2-0.4,0.4-0.6c0.2-0.3,0.2-0.9-0.1-1.1
			C124-0.1,123.8,0,123.7,0.3z"/>
		<path class="st0" d="M115,4.4c-0.3,0.1-0.6,0.2-0.9,0.3c-0.6,0.2-1.1,0.4-1.6,0.6c-0.6,0.3-1.3,0.6-1.9,0.9
			c-0.5,0.2-1,0.5-1.4,0.7c-0.6,0.4-1.2,0.7-1.8,1.1c-0.1,0.1-0.1,0.2-0.3,0.2c-0.1,0-0.1,0.1-0.1,0.1c0,0-0.1,0.1-0.1,0.1
			c-0.5,0.2-0.8,0.6-1.2,0.9c-0.8,0.6-1.6,1.2-2.4,1.8c-0.1,0-0.2,0-0.2,0.1c-0.6,0.4-1.2,0.8-1.7,1.2c-0.8,0.6-1.7,1.2-2.6,1.7
			c-0.8,0.6-1.7,1.1-2.5,1.6c-0.2,0-0.2,0.1-0.3,0.2l0,0l0,0c0,0.1-0.1,0.1-0.2,0.1c-0.1,0-0.2,0.1-0.3,0.2c0,0,0,0-0.1,0
			c-0.1,0-0.2,0-0.2,0.1c-0.1,0.1-0.3,0.2-0.4,0.3c-0.7,0.5-1.5,0.9-2.2,1.4c-0.3,0.2-0.5,0.4-0.8,0.5c-0.1-0.1-0.1,0.1-0.2,0.1
			c-0.2,0.2-0.4,0.3-0.6,0.4c-0.5,0.3-1,0.6-1.5,0.9c-0.4,0.2-0.7,0.5-0.6,1c0,0.6,0.2,1.2,0.4,1.7c0,0.2,0.1,0.3,0.2,0.4
			c0,0,0.1,0,0.1,0c0.3,0.6,0.8,1,1.4,1.3c0.1,0.1,0.2,0.1,0.3,0.1c0.1,0,0.2,0,0.3,0c0.3-0.1,0.5-0.3,0.8-0.5
			c0.6-0.4,1.2-0.8,1.8-1.2c0.1,0,0.2,0,0.2-0.1c0.5-0.3,0.9-0.5,1.4-0.8c0.5-0.4,1.1-0.7,1.7-1.1c0.1,0,0.2,0,0.2-0.1
			c0,0,0,0,0.1,0c0.2-0.1,0.4-0.1,0.5-0.3c0,0,0.1,0,0.1,0c0.6-0.4,1.3-0.8,2-1.3c0.5-0.3,1-0.6,1.5-0.9c0.6-0.4,1.2-0.8,1.8-1.2
			c0.7-0.5,1.5-0.9,2.2-1.4c0.5-0.3,0.8-0.8,0.9-1.5c0-0.3,0-0.6,0-0.9c-0.1-0.6,0.1-1.1,0.2-1.7c0.1,0,0.1-0.1,0.1-0.2
			c0.1-0.4,0.4-0.6,0.7-0.9c0.2-0.1,0.4-0.3,0.5-0.4c0.6-0.4,1.2-0.6,1.9-1c0.5-0.2,1-0.5,1.5-0.7c0.5-0.2,1-0.5,1.5-0.7
			c0.4-0.2,0.7-0.3,1.1-0.5c0.4-0.2,0.9-0.3,1.3-0.5c0.2-0.1,0.5-0.2,0.7-0.3c0.1,0,0.3-0.1,0-0.2c-0.2-0.1-0.4-0.3-0.6-0.4
			c-0.2-0.2-0.4-0.3-0.4-0.6c0-0.2,0-0.3,0-0.5C115.1,4.4,115.1,4.3,115,4.4z"/>
		<path class="st0" d="M116.9,2.6c-0.4,0.2-0.8,0.4-1.2,0.5c-0.3,0.1-0.4,0.3-0.4,0.6c0,0.1,0.1,0.1,0,0.2c-0.1,0.3,0,0.6,0,0.9
			c0,0.1,0,0.2,0.1,0.3c0.2,0.3,0.5,0.4,0.7,0.6c0.2,0.2,0.5,0.3,0.7,0.5c0.3,0.3,0.7,0.5,1,0.8c0.2,0.2,0.4,0.3,0.6,0.5
			c0.4,0.3,0.8,0.6,1.2,0.9c0.4,0.3,0.8,0.6,1.2,1c0.4,0.3,0.8,0.6,1.2,1c0.3,0.3,0.7,0.6,1,0.9c0.3,0.2,0.5,0.5,0.8,0.7
			c0.3,0.2,0.5,0.4,0.8,0.7c0.5,0.4,0.9,0.9,1.4,1.3c0.3,0.3,0.7,0.7,1,1c0.4,0.4,0.8,0.8,1.2,1.2c0.5,0.5,1,0.9,1.5,1.4
			c0.4,0.4,0.8,0.9,1.2,1.3c0.3,0.3,0.5,0.6,0.9,0.9c0.2,0.2,0.4,0.5,0.7,0.7c0.2,0.2,0.4,0.4,0.6,0.6c0.4,0.5,0.9,1,1.4,1.5
			c0.2,0.2,0.5,0.5,0.7,0.7c0.5,0.6,0.9,1.1,1.4,1.6c0.1,0.2,0.3,0.3,0.4,0.5c0.2,0.3,0.5,0.5,0.7,0.8c0.1,0.2,0.3,0.3,0.4,0.5
			c0.2,0.2,0.3,0.5,0.6,0.7c0.2,0.3,0.4,0.5,0.6,0.7c0.1,0.1,0.1,0.3,0.3,0.3c0,0,0,0,0,0.1c0,0.1,0.1,0.2,0.2,0.2
			c0.1,0,0.1,0.1,0.1,0.2c0.2,0.2,0.4,0.5,0.6,0.7c0.2,0.3,0.5,0.6,0.7,1c0.3,0.4,0.8,0.4,1.3,0.4c0.5,0.1,1,0.1,1.5,0.2
			c0.1,0,0.2,0,0.3,0c0.2,0,0.3-0.1,0.4-0.2c0.2-0.3,0.3-0.7,0.4-1c0.1-0.1,0.1-0.1,0.1-0.2c0.1-0.2,0.1-0.5,0.2-0.7
			c0.1-0.1,0.1-0.1,0.1-0.2c0.1-0.3,0.2-0.5,0-0.8c-0.4-0.6-0.8-1.2-1.2-1.7c-0.4-0.6-0.8-1.1-1.2-1.7c-0.6-0.8-1.2-1.6-1.9-2.3
			c-0.5-0.6-1-1.2-1.5-1.8c-0.4-0.4-0.7-0.8-1.1-1.2c-0.5-0.6-1.1-1.2-1.7-1.8c-0.4-0.4-0.8-0.8-1.2-1.2c-0.4-0.4-0.7-0.7-1.1-1.1
			c-0.4-0.4-0.9-0.8-1.3-1.3c-0.7-0.7-1.4-1.3-2.1-1.9c-0.4-0.4-0.9-0.7-1.3-1.1c-0.1-0.1-0.2-0.2-0.3-0.3l0,0v0l0,0
			c0,0-0.1,0-0.1-0.1c0-0.1-0.1-0.1-0.2-0.1c0,0,0,0,0,0c-0.1-0.1-0.2-0.2-0.3-0.2c-0.1,0-0.2-0.1-0.2-0.2c-0.1-0.1-0.2-0.2-0.3-0.2
			c-0.1,0-0.1-0.1-0.2-0.2c0-0.1-0.1-0.1-0.2-0.2l0,0l0,0c-0.1,0-0.2-0.1-0.2-0.1c-0.5-0.4-1-0.8-1.6-1.2c-0.3-0.3-0.7-0.5-1-0.8
			c-0.3-0.2-0.5-0.4-0.8-0.5c-0.2-0.2-0.5-0.3-0.7-0.5c-0.3-0.2-0.6-0.4-0.9-0.6c-0.3-0.2-0.5-0.4-0.8-0.5c-0.4-0.3-0.9-0.6-1.3-0.9
			c-0.3-0.2-0.6-0.4-0.9-0.6c-0.3-0.2-0.7-0.4-1-0.6c-0.2-0.2-0.5-0.3-0.7-0.4C117.6,2.5,117.3,2.4,116.9,2.6z M144,29.9
			c-0.1,0.4-0.5,0.6-0.8,0.5c-0.4-0.1-0.6-0.5-0.5-0.8c0.1-0.4,0.5-0.6,0.8-0.5S144.1,29.5,144,29.9z M118.2,4.9
			c-0.1,0.4-0.5,0.6-0.8,0.5c-0.4-0.1-0.6-0.5-0.5-0.8c0.1-0.4,0.5-0.6,0.8-0.5C118,4.1,118.3,4.5,118.2,4.9z"/>
	</g>
	<g>
		<path class="st0" d="M141.1,0.3c0,0.1,0.1,0.2,0.2,0.3c0.4,0.8,0.9,1.4,1.5,1.9c0.5,0.4,1,0.6,1.6,0.7c0.3,0,0.5,0.1,0.8,0.1
			c0,0,0.1,0,0.1,0.1c0,0,0,0.1,0,0.1c-0.2,0-0.3,0.2-0.4,0.3c-0.2,0.1-0.4,0.3-0.6,0.4c-0.2,0.1-0.3,0.3-0.5,0.2
			c-0.5-0.3-1-0.6-1.4-0.9c-0.4-0.3-0.7-0.5-1-0.9c-0.2-0.2-0.4-0.4-0.5-0.7c-0.1-0.2-0.2-0.4-0.4-0.6c-0.2-0.3-0.2-0.9,0.1-1.1
			C140.8-0.1,141,0,141.1,0.3z"/>
		<path class="st0" d="M149.8,4.4c0.3,0.1,0.6,0.2,0.9,0.3c0.6,0.2,1.1,0.4,1.6,0.6c0.6,0.3,1.3,0.6,1.9,0.9c0.5,0.2,1,0.5,1.4,0.7
			c0.6,0.4,1.2,0.7,1.8,1.1c0.1,0.1,0.1,0.2,0.3,0.2c0.1,0,0.1,0.1,0.1,0.1c0,0,0.1,0.1,0.1,0.1c0.5,0.2,0.8,0.6,1.2,0.9
			c0.8,0.6,1.6,1.2,2.4,1.8c0.1,0,0.2,0,0.2,0.1c0.6,0.4,1.2,0.8,1.7,1.2c0.8,0.6,1.7,1.2,2.6,1.7c0.8,0.6,1.7,1.1,2.5,1.6
			c0.2,0,0.2,0.1,0.3,0.2h0v0c0,0.1,0.1,0.1,0.2,0.1c0.1,0,0.2,0.1,0.3,0.2c0,0,0,0,0.1,0c0.1,0,0.2,0,0.2,0.1
			c0.1,0.1,0.3,0.2,0.4,0.3c0.7,0.5,1.5,0.9,2.2,1.4c0.3,0.2,0.5,0.4,0.8,0.5c0.1-0.1,0.1,0.1,0.2,0.1c0.2,0.2,0.4,0.3,0.6,0.4
			c0.5,0.3,1,0.6,1.5,0.9c0.4,0.2,0.7,0.5,0.6,1c0,0.6-0.2,1.2-0.4,1.7c0,0.2-0.1,0.3-0.2,0.4c0,0-0.1,0-0.1,0
			c-0.3,0.6-0.8,1-1.4,1.3c-0.1,0.1-0.2,0.1-0.3,0.1c-0.1,0-0.2,0-0.3,0c-0.3-0.1-0.5-0.3-0.8-0.5c-0.6-0.4-1.2-0.8-1.8-1.2
			c-0.1,0-0.2,0-0.2-0.1c-0.5-0.3-0.9-0.5-1.4-0.8c-0.5-0.4-1.1-0.7-1.7-1.1c-0.1,0-0.2,0-0.2-0.1c0,0,0,0-0.1,0
			c-0.2-0.1-0.4-0.1-0.5-0.3c0,0-0.1,0-0.1,0c-0.6-0.4-1.3-0.8-2-1.3c-0.5-0.3-1-0.6-1.5-0.9c-0.6-0.4-1.2-0.8-1.8-1.2
			c-0.7-0.5-1.5-0.9-2.2-1.4c-0.5-0.3-0.8-0.8-0.9-1.5c0-0.3,0-0.6,0-0.9c0.1-0.6-0.1-1.1-0.2-1.7c-0.1,0-0.1-0.1-0.1-0.2
			c-0.1-0.4-0.4-0.6-0.7-0.9c-0.2-0.1-0.4-0.3-0.5-0.4c-0.6-0.4-1.2-0.6-1.9-1c-0.5-0.2-1-0.5-1.5-0.7c-0.5-0.2-1-0.5-1.5-0.7
			c-0.4-0.2-0.7-0.3-1.1-0.5c-0.4-0.2-0.9-0.3-1.3-0.5c-0.2-0.1-0.5-0.2-0.7-0.3c-0.1,0-0.3-0.1,0-0.2c0.2-0.1,0.4-0.3,0.6-0.4
			c0.2-0.2,0.4-0.3,0.4-0.6c0-0.2,0-0.3,0-0.5C149.7,4.4,149.7,4.3,149.8,4.4z"/>
		<path class="st0" d="M146.9,2.7c-0.2,0.1-0.5,0.3-0.7,0.4c-0.3,0.2-0.7,0.4-1,0.6c-0.3,0.2-0.6,0.4-0.9,0.6
			c-0.4,0.3-0.9,0.6-1.3,0.9c-0.3,0.2-0.5,0.4-0.8,0.5c-0.3,0.2-0.6,0.4-0.9,0.6c-0.2,0.2-0.5,0.3-0.7,0.5c-0.3,0.2-0.5,0.4-0.8,0.5
			c-0.3,0.2-0.7,0.5-1,0.8c-0.5,0.4-1.1,0.8-1.6,1.2c-0.1,0.1-0.2,0.1-0.2,0.1l0,0v0c-0.1,0-0.2,0-0.2,0.2c-0.1,0.1-0.1,0.2-0.2,0.2
			c-0.1,0.1-0.2,0.1-0.3,0.2c-0.1,0.1-0.1,0.2-0.2,0.2c-0.1,0.1-0.2,0.1-0.3,0.2c0,0,0,0,0,0c-0.1,0-0.1,0.1-0.2,0.1
			c0,0.1-0.1,0.1-0.1,0.1l0,0v0v0c-0.1,0.1-0.2,0.2-0.3,0.3c-0.4,0.4-0.9,0.7-1.3,1.1c-0.7,0.6-1.4,1.2-2.1,1.9
			c-0.4,0.4-0.9,0.8-1.3,1.3c-0.4,0.4-0.7,0.7-1.1,1.1c-0.4,0.4-0.8,0.8-1.2,1.2c-0.6,0.6-1.1,1.2-1.7,1.8c-0.4,0.4-0.7,0.8-1.1,1.2
			c-0.5,0.6-1,1.2-1.5,1.8c-0.6,0.8-1.3,1.5-1.9,2.3c-0.4,0.5-0.8,1.1-1.2,1.7c-0.4,0.6-0.8,1.1-1.2,1.7c-0.1,0.2-0.1,0.5,0,0.8
			c0,0.1,0.1,0.2,0.1,0.2c0.1,0.2,0.1,0.5,0.2,0.7c0,0.1,0.1,0.2,0.1,0.2c0.1,0.4,0.2,0.7,0.4,1c0.1,0.1,0.2,0.2,0.4,0.2
			c0.1,0.1,0.2,0.1,0.3,0c0.5-0.1,1-0.1,1.5-0.2c0.4-0.1,0.9,0,1.3-0.4c0.3-0.3,0.5-0.6,0.7-1c0.2-0.2,0.3-0.5,0.6-0.7
			c0.1,0,0-0.2,0.1-0.2c0.1-0.1,0.2-0.1,0.2-0.2c0,0,0,0,0-0.1c0.2,0,0.2-0.2,0.3-0.3c0.2-0.2,0.4-0.5,0.6-0.7
			c0.2-0.2,0.4-0.4,0.6-0.7c0-0.2,0.3-0.4,0.4-0.5c0.2-0.3,0.5-0.6,0.7-0.8c0.1-0.2,0.3-0.3,0.4-0.5c0.5-0.6,0.9-1.1,1.4-1.6
			c0.2-0.2,0.4-0.5,0.7-0.7c0.4-0.5,0.9-1,1.4-1.5c0.2-0.2,0.4-0.4,0.6-0.6c0.2-0.2,0.4-0.5,0.7-0.7c0.3-0.3,0.6-0.6,0.9-0.9
			c0.4-0.4,0.8-0.9,1.2-1.3c0.5-0.5,1-1,1.5-1.4c0.4-0.4,0.8-0.8,1.2-1.2c0.3-0.3,0.7-0.7,1-1c0.5-0.4,0.9-0.9,1.4-1.3
			c0.3-0.2,0.5-0.4,0.8-0.7c0.3-0.2,0.5-0.5,0.8-0.7c0.3-0.3,0.7-0.6,1-0.9c0.4-0.3,0.8-0.6,1.2-1c0.4-0.3,0.8-0.6,1.2-1
			c0.4-0.3,0.8-0.6,1.2-0.9c0.2-0.2,0.4-0.3,0.6-0.5c0.3-0.3,0.7-0.5,1-0.8c0.2-0.2,0.5-0.3,0.7-0.5c0.2-0.2,0.5-0.3,0.7-0.6
			c0.1-0.1,0.1-0.3,0.1-0.3c0-0.3,0.1-0.6,0-0.9c0-0.1,0-0.2,0-0.2c0-0.3-0.1-0.5-0.4-0.6c-0.4-0.1-0.8-0.3-1.2-0.5
			C147.5,2.4,147.2,2.5,146.9,2.7z M121.3,29c0.4-0.1,0.7,0.1,0.8,0.5c0.1,0.4-0.1,0.7-0.5,0.8c-0.4,0.1-0.7-0.1-0.8-0.5
			C120.7,29.5,121,29.1,121.3,29z M147.1,4c0.4-0.1,0.7,0.1,0.8,0.5c0.1,0.4-0.1,0.7-0.5,0.8c-0.4,0.1-0.7-0.1-0.8-0.5
			C146.5,4.5,146.8,4.1,147.1,4z"/>
		<path class="st0" d="M141.1,0.3c0,0.1,0.1,0.2,0.2,0.3c0.4,0.8,0.9,1.4,1.5,1.9c0.5,0.4,1,0.6,1.6,0.7c0.3,0,0.5,0.1,0.8,0.1
			c0,0,0.1,0,0.1,0.1c0,0,0,0.1,0,0.1c-0.2,0-0.3,0.2-0.4,0.3c-0.2,0.1-0.4,0.3-0.6,0.4c-0.2,0.1-0.3,0.3-0.5,0.2
			c-0.5-0.3-1-0.6-1.4-0.9c-0.4-0.3-0.7-0.5-1-0.9c-0.2-0.2-0.4-0.4-0.5-0.7c-0.1-0.2-0.2-0.4-0.4-0.6c-0.2-0.3-0.2-0.9,0.1-1.1
			C140.8-0.1,141,0,141.1,0.3z"/>
		<path class="st0" d="M149.8,4.4c0.3,0.1,0.6,0.2,0.9,0.3c0.6,0.2,1.1,0.4,1.6,0.6c0.6,0.3,1.3,0.6,1.9,0.9c0.5,0.2,1,0.5,1.4,0.7
			c0.6,0.4,1.2,0.7,1.8,1.1c0.1,0.1,0.1,0.2,0.3,0.2c0.1,0,0.1,0.1,0.1,0.1c0,0,0.1,0.1,0.1,0.1c0.5,0.2,0.8,0.6,1.2,0.9
			c0.8,0.6,1.6,1.2,2.4,1.8c0.1,0,0.2,0,0.2,0.1c0.6,0.4,1.2,0.8,1.7,1.2c0.8,0.6,1.7,1.2,2.6,1.7c0.8,0.6,1.7,1.1,2.5,1.6
			c0.2,0,0.2,0.1,0.3,0.2h0v0c0,0.1,0.1,0.1,0.2,0.1c0.1,0,0.2,0.1,0.3,0.2c0,0,0,0,0.1,0c0.1,0,0.2,0,0.2,0.1
			c0.1,0.1,0.3,0.2,0.4,0.3c0.7,0.5,1.5,0.9,2.2,1.4c0.3,0.2,0.5,0.4,0.8,0.5c0.1-0.1,0.1,0.1,0.2,0.1c0.2,0.2,0.4,0.3,0.6,0.4
			c0.5,0.3,1,0.6,1.5,0.9c0.4,0.2,0.7,0.5,0.6,1c0,0.6-0.2,1.2-0.4,1.7c0,0.2-0.1,0.3-0.2,0.4c0,0-0.1,0-0.1,0
			c-0.3,0.6-0.8,1-1.4,1.3c-0.1,0.1-0.2,0.1-0.3,0.1c-0.1,0-0.2,0-0.3,0c-0.3-0.1-0.5-0.3-0.8-0.5c-0.6-0.4-1.2-0.8-1.8-1.2
			c-0.1,0-0.2,0-0.2-0.1c-0.5-0.3-0.9-0.5-1.4-0.8c-0.5-0.4-1.1-0.7-1.7-1.1c-0.1,0-0.2,0-0.2-0.1c0,0,0,0-0.1,0
			c-0.2-0.1-0.4-0.1-0.5-0.3c0,0-0.1,0-0.1,0c-0.6-0.4-1.3-0.8-2-1.3c-0.5-0.3-1-0.6-1.5-0.9c-0.6-0.4-1.2-0.8-1.8-1.2
			c-0.7-0.5-1.5-0.9-2.2-1.4c-0.5-0.3-0.8-0.8-0.9-1.5c0-0.3,0-0.6,0-0.9c0.1-0.6-0.1-1.1-0.2-1.7c-0.1,0-0.1-0.1-0.1-0.2
			c-0.1-0.4-0.4-0.6-0.7-0.9c-0.2-0.1-0.4-0.3-0.5-0.4c-0.6-0.4-1.2-0.6-1.9-1c-0.5-0.2-1-0.5-1.5-0.7c-0.5-0.2-1-0.5-1.5-0.7
			c-0.4-0.2-0.7-0.3-1.1-0.5c-0.4-0.2-0.9-0.3-1.3-0.5c-0.2-0.1-0.5-0.2-0.7-0.3c-0.1,0-0.3-0.1,0-0.2c0.2-0.1,0.4-0.3,0.6-0.4
			c0.2-0.2,0.4-0.3,0.4-0.6c0-0.2,0-0.3,0-0.5C149.7,4.4,149.7,4.3,149.8,4.4z"/>
		<path class="st0" d="M146.9,2.7c-0.2,0.1-0.5,0.3-0.7,0.4c-0.3,0.2-0.7,0.4-1,0.6c-0.3,0.2-0.6,0.4-0.9,0.6
			c-0.4,0.3-0.9,0.6-1.3,0.9c-0.3,0.2-0.5,0.4-0.8,0.5c-0.3,0.2-0.6,0.4-0.9,0.6c-0.2,0.2-0.5,0.3-0.7,0.5c-0.3,0.2-0.5,0.4-0.8,0.5
			c-0.3,0.2-0.7,0.5-1,0.8c-0.5,0.4-1.1,0.8-1.6,1.2c-0.1,0.1-0.2,0.1-0.2,0.1l0,0v0c-0.1,0-0.2,0-0.2,0.2c-0.1,0.1-0.1,0.2-0.2,0.2
			c-0.1,0.1-0.2,0.1-0.3,0.2c-0.1,0.1-0.1,0.2-0.2,0.2c-0.1,0.1-0.2,0.1-0.3,0.2c0,0,0,0,0,0c-0.1,0-0.1,0.1-0.2,0.1
			c0,0.1-0.1,0.1-0.1,0.1l0,0v0v0c-0.1,0.1-0.2,0.2-0.3,0.3c-0.4,0.4-0.9,0.7-1.3,1.1c-0.7,0.6-1.4,1.2-2.1,1.9
			c-0.4,0.4-0.9,0.8-1.3,1.3c-0.4,0.4-0.7,0.7-1.1,1.1c-0.4,0.4-0.8,0.8-1.2,1.2c-0.6,0.6-1.1,1.2-1.7,1.8c-0.4,0.4-0.7,0.8-1.1,1.2
			c-0.5,0.6-1,1.2-1.5,1.8c-0.6,0.8-1.3,1.5-1.9,2.3c-0.4,0.5-0.8,1.1-1.2,1.7c-0.4,0.6-0.8,1.1-1.2,1.7c-0.1,0.2-0.1,0.5,0,0.8
			c0,0.1,0.1,0.2,0.1,0.2c0.1,0.2,0.1,0.5,0.2,0.7c0,0.1,0.1,0.2,0.1,0.2c0.1,0.4,0.2,0.7,0.4,1c0.1,0.1,0.2,0.2,0.4,0.2
			c0.1,0.1,0.2,0.1,0.3,0c0.5-0.1,1-0.1,1.5-0.2c0.4-0.1,0.9,0,1.3-0.4c0.3-0.3,0.5-0.6,0.7-1c0.2-0.2,0.3-0.5,0.6-0.7
			c0.1,0,0-0.2,0.1-0.2c0.1-0.1,0.2-0.1,0.2-0.2c0,0,0,0,0-0.1c0.2,0,0.2-0.2,0.3-0.3c0.2-0.2,0.4-0.5,0.6-0.7
			c0.2-0.2,0.4-0.4,0.6-0.7c0-0.2,0.3-0.4,0.4-0.5c0.2-0.3,0.5-0.6,0.7-0.8c0.1-0.2,0.3-0.3,0.4-0.5c0.5-0.6,0.9-1.1,1.4-1.6
			c0.2-0.2,0.4-0.5,0.7-0.7c0.4-0.5,0.9-1,1.4-1.5c0.2-0.2,0.4-0.4,0.6-0.6c0.2-0.2,0.4-0.5,0.7-0.7c0.3-0.3,0.6-0.6,0.9-0.9
			c0.4-0.4,0.8-0.9,1.2-1.3c0.5-0.5,1-1,1.5-1.4c0.4-0.4,0.8-0.8,1.2-1.2c0.3-0.3,0.7-0.7,1-1c0.5-0.4,0.9-0.9,1.4-1.3
			c0.3-0.2,0.5-0.4,0.8-0.7c0.3-0.2,0.5-0.5,0.8-0.7c0.3-0.3,0.7-0.6,1-0.9c0.4-0.3,0.8-0.6,1.2-1c0.4-0.3,0.8-0.6,1.2-1
			c0.4-0.3,0.8-0.6,1.2-0.9c0.2-0.2,0.4-0.3,0.6-0.5c0.3-0.3,0.7-0.5,1-0.8c0.2-0.2,0.5-0.3,0.7-0.5c0.2-0.2,0.5-0.3,0.7-0.6
			c0.1-0.1,0.1-0.3,0.1-0.3c0-0.3,0.1-0.6,0-0.9c0-0.1,0-0.2,0-0.2c0-0.3-0.1-0.5-0.4-0.6c-0.4-0.1-0.8-0.3-1.2-0.5
			C147.5,2.4,147.2,2.5,146.9,2.7z M121.3,29c0.4-0.1,0.7,0.1,0.8,0.5c0.1,0.4-0.1,0.7-0.5,0.8c-0.4,0.1-0.7-0.1-0.8-0.5
			C120.7,29.5,121,29.1,121.3,29z M147.1,4c0.4-0.1,0.7,0.1,0.8,0.5c0.1,0.4-0.1,0.7-0.5,0.8c-0.4,0.1-0.7-0.1-0.8-0.5
			C146.5,4.5,146.8,4.1,147.1,4z"/>
	</g>
</g>
</svg>
