<?xml version="1.0" encoding="utf-8"?>
<!-- Generator: Adobe Illustrator 21.1.0, SVG Export Plug-In . SVG Version: 6.00 Build 0)  -->
<svg version="1.1" id="Capa_1" xmlns="http://www.w3.org/2000/svg" xmlns:xlink="http://www.w3.org/1999/xlink" x="0px" y="0px"
	 viewBox="0 0 512 512" style="enable-background:new 0 0 512 512;" xml:space="preserve">
<g>
	<g>
		<g>
			<path d="M256,24c86,0,156,70,156,156c0,28.2-7.6,55.8-22,79.9L258.4,479.7L123.3,261.9C108.1,237.4,100,209.1,100,180
				C100,94,170,24,256,24 M256,294.2c63,0,114.2-51.2,114.2-114.2S319,65.8,256,65.8S141.8,117,141.8,180S193,294.2,256,294.2
				 M256,0C156.7,0,76,80.7,76,180c0,33.5,9.3,66.3,26.9,94.6l142.9,230.3c2.9,4.7,7.8,7.1,12.7,7.1c5,0,10-2.5,12.9-7.3
				l139.2-232.5c16.6-27.8,25.4-59.7,25.4-92.2C436,80.7,355.3,0,256,0L256,0z M256,270.2c-50.3,0-90.2-41-90.2-90.2
				c0-49.6,40.6-90.2,90.2-90.2s90.2,40.6,90.2,90.2C346.2,228.8,306.9,270.2,256,270.2L256,270.2z"/>
		</g>
	</g>
</g>
</svg>
